# xmcd
#
# Track frame offsets:
#       150
#       17644
#       35929
#       56001
#       74705
#       92805
#       107848
#       121378
#       138104
#       151207
#       171481
#       186080
#       210758
#
# Disc length: 3068 seconds
#
# Revision: 0
# Processed by: cddbd v1.4PL0 Copyright (c) Steve Scherf et al.
# Submitted via: CD-DA_X-Tractor v0.21
#
DISCID=b80bfa0d
DTITLE=Lifvens Vänner - Lifs Levenés
DYEAR=1900
DGENRE=
TTITLE0=Blue moon of Kentucky
TTITLE1=Mountain Dew
TTITLE2=Vecka 42
TTITLE3=Sketlukta
TTITLE4=Tomorrow is a long time
TTITLE5=Lifven
TTITLE6=Kvinnan i huset
TTITLE7=Tennesse Waltz
TTITLE8=Molly Maguires
TTITLE9=Ålefiskarn´s vals
TTITLE10=Vals på Mysingen
TTITLE11=Vill du spela min maracas
TTITLE12=Auld Triangle
EXTD=
EXTT0=
EXTT1=
EXTT2=
EXTT3=
EXTT4=
EXTT5=
EXTT6=
EXTT7=
EXTT8=
EXTT9=
EXTT10=
EXTT11=
EXTT12=
PLAYORDER=
